%FSLAX43Y43*%
%MOMM*%
G71*
G01*
G75*
%ADD10C,0.300*%
%ADD11R,1.600X1.800*%
%ADD12C,0.125*%
%ADD13R,1.800X1.600*%
%ADD14R,3.000X1.500*%
%ADD15R,2.300X2.300*%
%ADD16R,2.100X1.050*%
%ADD17R,8.000X3.500*%
%ADD18R,0.550X1.450*%
%ADD19R,3.000X4.000*%
%ADD20R,0.900X0.950*%
%ADD21R,0.900X0.950*%
%ADD22O,0.600X1.600*%
%ADD23O,1.600X0.600*%
%ADD24R,1.600X0.600*%
%ADD25R,10.300X10.500*%
%ADD26C,0.400*%
%ADD27C,0.500*%
%ADD28C,2.000*%
%ADD29C,0.600*%
%ADD30C,1.000*%
%ADD31C,1.500*%
%ADD32R,5.000X5.000*%
%ADD33R,1.500X1.500*%
%ADD34C,1.400*%
%ADD35R,1.400X1.400*%
%ADD36C,2.000*%
%ADD37C,1.500*%
%ADD38C,1.500*%
%ADD39R,1.500X1.500*%
%ADD40C,3.000*%
%ADD41C,2.500*%
%ADD42R,2.000X2.000*%
%ADD43C,1.100*%
%ADD44R,1.500X0.400*%
%ADD45R,1.803X2.003*%
%ADD46R,2.003X1.803*%
%ADD47R,3.203X1.703*%
%ADD48R,2.503X2.503*%
%ADD49R,2.303X1.253*%
%ADD50R,8.203X3.703*%
%ADD51R,0.753X1.653*%
%ADD52R,3.203X4.203*%
%ADD53R,1.103X1.153*%
%ADD54R,1.103X1.153*%
%ADD55O,0.803X1.803*%
%ADD56O,1.803X0.803*%
%ADD57R,1.803X0.803*%
%ADD58R,10.503X10.703*%
%ADD59R,5.203X5.203*%
%ADD60R,1.703X1.703*%
%ADD61C,1.603*%
%ADD62R,1.603X1.603*%
%ADD63C,2.203*%
%ADD64C,1.703*%
%ADD65C,1.703*%
%ADD66R,1.703X1.703*%
%ADD67C,3.203*%
%ADD68C,2.703*%
%ADD69R,2.203X2.203*%
%ADD70C,1.303*%
%ADD71R,1.703X0.603*%
D45*
X23212Y68693D02*
D03*
X26012Y68693D02*
D03*
X37312Y38693D02*
D03*
X40112Y38693D02*
D03*
X49688Y41107D02*
D03*
X46888Y41107D02*
D03*
X49688Y38407D02*
D03*
X46888Y38407D02*
D03*
X40088Y41307D02*
D03*
X37288Y41307D02*
D03*
X49688Y44007D02*
D03*
X46888Y44007D02*
D03*
X37287Y17407D02*
D03*
X40087Y17407D02*
D03*
X53488Y66682D02*
D03*
X56288Y66682D02*
D03*
D46*
X42593Y38088D02*
D03*
X42593Y35288D02*
D03*
X31807Y30012D02*
D03*
X31807Y32812D02*
D03*
X26807Y30012D02*
D03*
X26807Y32812D02*
D03*
X44293Y78088D02*
D03*
Y75288D02*
D03*
X52193Y1688D02*
D03*
Y4488D02*
D03*
D53*
X23558Y71539D02*
D03*
X24508Y74039D02*
D03*
D54*
X25458Y71539D02*
D03*
D59*
X57500Y87500D02*
D03*
Y2500D02*
D03*
X2500D02*
D03*
Y87500D02*
D03*
D60*
X23691Y3711D02*
D03*
X36288D02*
D03*
X7199Y24993D02*
D03*
X6412Y75005D02*
D03*
Y72505D02*
D03*
X43095Y11612D02*
D03*
X30095Y13612D02*
D03*
X51900Y24900D02*
D03*
D61*
X11411Y66392D02*
D03*
X20192Y84689D02*
D03*
X57208Y71111D02*
D03*
X57192Y62189D02*
D03*
D62*
X8911Y66392D02*
D03*
X20192Y87189D02*
D03*
X57208Y68611D02*
D03*
X57192Y64689D02*
D03*
D63*
X8594Y2892D02*
D03*
X10800Y9000D02*
D03*
D64*
X38828Y3711D02*
D03*
X58299Y8267D02*
D03*
X46448Y3711D02*
D03*
X48988D02*
D03*
X12199Y24993D02*
D03*
X31792Y28000D02*
D03*
X26792Y28000D02*
D03*
X58299Y15887D02*
D03*
X28771Y3711D02*
D03*
X26231D02*
D03*
X49360Y24900D02*
D03*
X51900Y27440D02*
D03*
X49360D02*
D03*
X43908Y3711D02*
D03*
X41368D02*
D03*
X41675Y17400D02*
D03*
X55150Y17500D02*
D03*
X44925Y80425D02*
D03*
X20350Y42575D02*
D03*
X20325Y39250D02*
D03*
D65*
X58299Y10807D02*
D03*
X58299Y13347D02*
D03*
X58299Y18427D02*
D03*
D66*
Y23507D02*
D03*
D67*
X10800Y72500D02*
D03*
Y17500D02*
D03*
X2100Y29400D02*
D03*
X19100D02*
D03*
Y68400D02*
D03*
X2100D02*
D03*
D68*
X37400Y86500D02*
D03*
Y81500D02*
D03*
X42400D02*
D03*
X39900Y84000D02*
D03*
X42400Y86500D02*
D03*
D69*
X10800Y81000D02*
D03*
X13594Y2892D02*
D03*
D70*
X53875Y15000D02*
D03*
X45875Y15175D02*
D03*
X26425Y13575D02*
D03*
X31450Y15193D02*
D03*
X34125Y7225D02*
D03*
X24150Y6700D02*
D03*
X28425Y21825D02*
D03*
X38725Y24850D02*
D03*
X51650Y48400D02*
D03*
X58388Y56687D02*
D03*
X38700Y23325D02*
D03*
X53900Y22400D02*
D03*
X51025Y49775D02*
D03*
X55075Y56475D02*
D03*
X30750Y5300D02*
D03*
X31800Y4325D02*
D03*
X27700Y23100D02*
D03*
X33200Y23350D02*
D03*
X36425Y50625D02*
D03*
X26800Y50600D02*
D03*
X24525Y75450D02*
D03*
X30225Y38625D02*
D03*
X32525Y48175D02*
D03*
Y38625D02*
D03*
X44450Y39175D02*
D03*
X51425Y38575D02*
D03*
X35000Y36625D02*
D03*
Y44275D02*
D03*
X45025Y37850D02*
D03*
X51410Y41160D02*
D03*
X36025Y47550D02*
D03*
X47025Y46475D02*
D03*
X43775Y46500D02*
D03*
Y41075D02*
D03*
X42475Y45600D02*
D03*
X51375Y43800D02*
D03*
X58388Y46437D02*
D03*
X22175Y49425D02*
D03*
X22250Y79325D02*
D03*
X33875Y80150D02*
D03*
X8784Y87716D02*
D03*
X53975Y79025D02*
D03*
X18925Y40950D02*
D03*
X25750Y72650D02*
D03*
X21825Y26875D02*
D03*
X34425Y27375D02*
D03*
X22300Y25275D02*
D03*
X44950Y27175D02*
D03*
X23925Y24475D02*
D03*
X35625Y24775D02*
D03*
X26500Y24000D02*
D03*
X37025Y24575D02*
D03*
X40450Y24750D02*
D03*
X42150Y23075D02*
D03*
X37650Y43300D02*
D03*
X52625Y13325D02*
D03*
X53475Y28400D02*
D03*
X43775Y28650D02*
D03*
X37350Y8550D02*
D03*
X38800Y9825D02*
D03*
X56475Y11000D02*
D03*
X54525Y10525D02*
D03*
X36525Y9650D02*
D03*
X48650Y17475D02*
D03*
X48450Y19050D02*
D03*
X51808Y5800D02*
D03*
X57182Y66660D02*
D03*
X42400Y44200D02*
D03*
X39150Y44300D02*
D03*
X33900Y21025D02*
D03*
X29950Y20000D02*
D03*
X32500Y17500D02*
D03*
X45200Y16350D02*
D03*
X46750Y13500D02*
D03*
X45600Y19525D02*
D03*
X5000Y32500D02*
D03*
X7500Y45000D02*
D03*
Y40000D02*
D03*
Y35000D02*
D03*
X2525Y35000D02*
D03*
Y40000D02*
D03*
Y45000D02*
D03*
X10025Y42500D02*
D03*
X9975Y37500D02*
D03*
X10000Y32450D02*
D03*
X12500Y35000D02*
D03*
Y40025D02*
D03*
X12500Y45000D02*
D03*
X17500Y24975D02*
D03*
X17525Y20000D02*
D03*
X17500Y5000D02*
D03*
X20025Y2500D02*
D03*
X20000Y7500D02*
D03*
X25025Y12500D02*
D03*
X15000Y7500D02*
D03*
X15000Y17525D02*
D03*
X15000Y22500D02*
D03*
X20000D02*
D03*
X20000Y17500D02*
D03*
X15000Y27400D02*
D03*
X12500Y20000D02*
D03*
X7475D02*
D03*
X10000Y22500D02*
D03*
X7500Y10000D02*
D03*
X2500Y7475D02*
D03*
X1525Y25000D02*
D03*
X1500Y20000D02*
D03*
X1375Y15000D02*
D03*
X1400Y10000D02*
D03*
X32500Y2525D02*
D03*
X34300Y9450D02*
D03*
X36300Y7250D02*
D03*
X46500Y6050D02*
D03*
X55425Y6300D02*
D03*
X53475Y11800D02*
D03*
X48400Y21025D02*
D03*
X51225Y21000D02*
D03*
X56000Y20975D02*
D03*
X55600Y32475D02*
D03*
X52300Y35000D02*
D03*
X55525Y36500D02*
D03*
X58675Y27500D02*
D03*
X58650Y32500D02*
D03*
X58700Y37500D02*
D03*
X58675Y42500D02*
D03*
X48600Y49825D02*
D03*
X52050Y52500D02*
D03*
X51525Y45300D02*
D03*
X39500Y46550D02*
D03*
X42300Y40875D02*
D03*
X35000Y32500D02*
D03*
X37500Y35000D02*
D03*
X40000Y32500D02*
D03*
X45000D02*
D03*
X47525Y35000D02*
D03*
Y30000D02*
D03*
X42525D02*
D03*
X46775Y27500D02*
D03*
X51075Y30400D02*
D03*
X29200Y30250D02*
D03*
Y33075D02*
D03*
X31750Y35900D02*
D03*
X27200Y35950D02*
D03*
X19575Y35400D02*
D03*
X22000Y33550D02*
D03*
X31075Y41100D02*
D03*
X31025Y45800D02*
D03*
X27500Y47500D02*
D03*
X21900Y46550D02*
D03*
X20000Y50000D02*
D03*
X17225Y52500D02*
D03*
X12500Y52475D02*
D03*
X7475Y52500D02*
D03*
X3375Y56700D02*
D03*
X6800Y56675D02*
D03*
X12500Y59975D02*
D03*
X17525Y60000D02*
D03*
X14975Y62500D02*
D03*
X17500Y65000D02*
D03*
X12500D02*
D03*
X15000Y67500D02*
D03*
X5000Y65000D02*
D03*
X15000Y72500D02*
D03*
X20000Y72525D02*
D03*
X12525Y70000D02*
D03*
X2525Y72500D02*
D03*
X10550Y75600D02*
D03*
X8350Y78000D02*
D03*
X2525Y83800D02*
D03*
X5750Y83900D02*
D03*
X6500Y88375D02*
D03*
X8825Y83100D02*
D03*
X13825Y79600D02*
D03*
X13300Y83025D02*
D03*
X13200Y88525D02*
D03*
X18300Y84150D02*
D03*
X20900Y76050D02*
D03*
X22500Y84975D02*
D03*
X25000Y82500D02*
D03*
X29975D02*
D03*
X30000Y87500D02*
D03*
X32525Y85000D02*
D03*
X35000Y82500D02*
D03*
X35025Y87500D02*
D03*
D03*
X25025Y77500D02*
D03*
X50000Y87575D02*
D03*
X50050Y84000D02*
D03*
X52100Y78950D02*
D03*
X55500Y63325D02*
D03*
X55300Y70050D02*
D03*
X27475Y52500D02*
D03*
X32500Y51850D02*
D03*
X32525Y75000D02*
D03*
X35000Y72500D02*
D03*
X35000Y57475D02*
D03*
X40025Y57500D02*
D03*
X45000Y57500D02*
D03*
Y62525D02*
D03*
X47525Y65000D02*
D03*
X45025Y67500D02*
D03*
X47475Y70000D02*
D03*
X45025Y72500D02*
D03*
X47475Y75000D02*
D03*
X42475Y70000D02*
D03*
Y65000D02*
D03*
X42550Y60000D02*
D03*
X37500Y59950D02*
D03*
X32475Y60000D02*
D03*
X40025Y62500D02*
D03*
Y67500D02*
D03*
X22300Y10975D02*
D03*
X47500Y60025D02*
D03*
X2500Y77075D02*
D03*
X50200Y11475D02*
D03*
X49800Y13850D02*
D03*
X5000Y37500D02*
D03*
X5000Y42500D02*
D03*
X1700Y47625D02*
D03*
D71*
X33200Y45350D02*
D03*
X35200D02*
D03*
Y46000D02*
D03*
Y46650D02*
D03*
X33200D02*
D03*
Y46000D02*
D03*
M02*
