METRIC,LZ
M48
T1F00S00C0.600
T2F00S00C0.850
T3F00S00C0.950
T4F00S00C1.000
T5F00S00C1.300
T6F00S00C1.500
T7F00S00C3.000
%
T01
X00325Y0002525
X00318Y0004325
X003075Y00053
X0034125Y0007225
X00363Y000725
X003735Y000855
X0036525Y000965
X00343Y000945
X00388Y0009825
X00465Y000605
X0051808Y00058
X0055425Y00063
X0054525Y0010525
X0053475Y00118
X00502Y0011475
X0056475Y0011
X00223Y0010975
X002Y00075
X002415Y00067
X0020025Y00025
X00175Y0005
X0015Y00075
X00075Y001
X00014
X00025Y0007475
X0001375Y0015
X00015Y002
X0001525Y0025
X0007475Y002
X001Y00225
X00125Y002
X0015Y0017525
X0015Y00225
X0015Y00274
X00175Y0024975
X002Y00225
X0017525Y002
X002Y00175
X0025025Y00125
X0026425Y0013575
X00265Y0024
X0023925Y0024475
X00223Y0025275
X0021825Y0026875
X0022Y003355
X0019575Y00354
X0018925Y004095
X00125Y0040025
X0010025Y00425
X00125Y0045
X00075Y0045
X0002525Y0045
X00017Y0047625
X0005Y00425
X0002525Y004
X0005Y00375
X0002525Y0035
X0005Y00325
X00075Y0035
X0009975Y00375
X00075Y004
X00125Y0035
X001Y003245
X00219Y004655
X0022175Y0049425
X002Y005
X00268Y00506
X00275Y00475
X0031025Y00458
X0032525Y0048175
X0036025Y004755
X0036425Y0050625
X00395Y004655
X003915Y00443
X003765Y00433
X0035Y0044275
X0031075Y00411
X0030225Y0038625
X0032525
X003175Y00359
X0035Y0036625
Y00325
X00375Y0035
X004Y00325
X0045
X0042525Y003
X0043775Y002865
X004495Y0027175
X0046775Y00275
X0047525Y003
X0051075Y00304
X0053475Y00284
X0058675Y00275
X005865Y00325
X00556Y0032475
X0055525Y00365
X00587Y00375
X0058675Y00425
X0058388Y0046437
X0051525Y00453
X0051375Y00438
X005141Y004116
X0051425Y0038575
X00523Y0035
X0047525
X0045025Y003785
X004445Y0039175
X0043775Y0041075
X00423Y0040875
X00424Y00442
X0042475Y00456
X0043775Y00465
X0047025Y0046475
X00486Y0049825
X0051025Y0049775
X005165Y00484
X0051225Y0021
X00484Y0021025
X004845Y001905
X004865Y0017475
X00452Y001635
X0045875Y0015175
X004675Y00135
X00498Y001385
X0052625Y0013325
X0053875Y0015
X00539Y00224
X0056Y0020975
X00456Y0019525
X004215Y0023075
X004045Y002475
X0038725Y002485
X00387Y0023325
X0037025Y0024575
X0035625Y0024775
X0034425Y0027375
X00332Y002335
X00339Y0021025
X00325Y00175
X003145Y0015193
X002995Y002
X0028425Y0021825
X00277Y00231
X00292Y003025
Y0033075
X00272Y003595
X0027475Y00525
X00325Y005185
X0035Y0057475
X00375Y005995
X0040025Y00575
X0045Y00575
X004255Y006
X00475Y0060025
X0047525Y0065
X0045Y0062525
X0042475Y0065
X0040025Y00625
Y00675
X0042475Y007
X0047475
X0045025Y00675
Y00725
X0047475Y0075
X00521Y007895
X0053975Y0079025
X005005Y0084
X005Y0087575
X0035025Y00875
X0032525Y0085
X0035Y00825
X0033875Y008015
X0029975Y00825
X003Y00875
X0032525Y0075
X0035Y00725
X0032475Y006
X0055075Y0056475
X0058388Y0056687
X00555Y0063325
X0057182Y006666
X00553Y007005
X005205Y00525
X0017225
X00125Y0052475
X0007475Y00525
X00068Y0056675
X0003375Y00567
X0005Y0065
X00125
X0014975Y00625
X00125Y0059975
X0017525Y006
X00175Y0065
X0015Y00675
X0012525Y007
X0015Y00725
X002Y0072525
X00209Y007605
X0024525Y007545
X0025025Y00775
X002225Y0079325
X00225Y0084975
X0025Y00825
X00183Y008415
X00133Y0083025
X0013825Y00796
X000835Y0078
X001055Y00756
X0008825Y00831
X000575Y00839
X0002525Y00838
X00025Y0077075
X0002525Y00725
X00065Y0088375
X0008784Y0087716
X00132Y0088525
X002575Y007265
T02
X0057192Y0062189
Y0064689
X0057208Y0068611
Y0071111
X0011411Y0066392
X0008911
X0020192Y0084689
Y0087189
T03
X0028771Y0003711
X0036288
X0038828
X0041368
X0043908
X0046448
X0048988
X0043095Y0011612
X0058299Y0010807
Y0008267
X0026231Y0003711
X0023691
X0030095Y0013612
X0058299Y0013347
Y0015887
X0058299Y0018427
Y0023507
X00519Y00249
X004936
Y002744
X00519
X0006412Y0072505
Y0075005
T04
X0007199Y0024993
X0012199
X0026792Y0028
X0020325Y003925
X002035Y0042575
X0031792Y0028
X0041675Y00174
X005515Y00175
X0044925Y0080425
T05
X0008594Y0002892
X0013594
T06
X00108Y0009
X00191Y00294
X00021
X00374Y00815
Y00865
X00399Y0084
X00424Y00815
Y00865
X00108Y0081
X00191Y00684
X00021
T07
X00575Y00025
X00025
X00108Y00175
X00575Y00875
X00025
X00108Y00725
M30
